<?xml version="1.0" standalone="no"?>
<!DOCTYPE svg PUBLIC "-//W3C//DTD SVG 20010904//EN"
 "http://www.w3.org/TR/2001/REC-SVG-20010904/DTD/svg10.dtd">
<svg version="1.0" xmlns="http://www.w3.org/2000/svg"
 width="364.000000pt" height="364.000000pt" viewBox="0 0 364.000000 364.000000"
 preserveAspectRatio="xMidYMid meet">
<metadata>
Created by potrace 1.14, written by Peter Selinger 2001-2017
</metadata>
<g transform="translate(0.000000,364.000000) scale(0.100000,-0.100000)"
fill="#000000" stroke="none">
<path d="M1438 3505 c-2 -2 -32 -6 -66 -9 -35 -3 -67 -8 -73 -11 -5 -4 -21 -9
-36 -11 -23 -4 -97 -43 -167 -87 -36 -22 -76 -67 -82 -92 -3 -14 -10 -25 -16
-25 -5 0 -7 -4 -3 -9 3 -5 1 -12 -5 -16 -6 -4 -8 -11 -5 -16 4 -5 0 -9 -7 -9
-8 0 -9 -3 -3 -8 12 -8 16 -44 5 -37 -10 6 -6 -57 5 -75 4 -7 9 -36 10 -64 1
-28 8 -64 15 -81 7 -16 13 -39 15 -50 1 -11 4 -21 5 -22 1 -2 3 -7 4 -12 0 -5
4 -13 9 -17 4 -4 7 -16 7 -26 0 -10 5 -18 12 -18 6 0 8 -3 5 -6 -3 -4 -1 -16
5 -28 7 -11 13 -23 14 -26 7 -29 28 -70 34 -70 4 0 7 -10 6 -22 -1 -16 -10
-24 -36 -31 -19 -5 -38 -14 -43 -20 -14 -23 3 -92 35 -137 41 -58 94 -111 102
-103 3 3 6 1 6 -5 0 -17 26 -15 55 4 20 13 28 14 40 4 8 -7 15 -17 15 -22 0
-16 44 -71 102 -128 l58 -56 -54 -53 c-36 -34 -73 -58 -108 -70 -65 -23 -117
-49 -142 -70 -10 -9 -21 -15 -25 -15 -32 6 -116 -82 -126 -133 -4 -20 -15 -53
-25 -73 -10 -19 -20 -44 -22 -55 -1 -11 -5 -22 -8 -25 -15 -15 -40 -83 -50
-140 -18 -100 -57 -192 -129 -307 -22 -35 -43 -73 -47 -85 -4 -13 -10 -25 -14
-28 -10 -7 -166 -330 -175 -362 -2 -5 -3 -9 -5 -10 -1 -2 -3 -10 -5 -18 -1 -8
-10 -39 -19 -69 -18 -60 -21 -147 -7 -184 6 -15 31 -35 68 -53 32 -16 60 -32
63 -36 11 -14 55 -15 86 -3 31 13 115 12 136 -1 7 -4 27 -9 46 -10 18 -1 48
-5 65 -8 31 -6 88 -15 137 -22 14 -2 63 -6 110 -9 47 -3 95 -7 108 -9 12 -3
22 -2 22 2 0 4 31 5 68 2 60 -6 75 -12 124 -48 30 -23 62 -42 71 -42 9 0 18
-4 21 -9 5 -7 41 -19 81 -26 6 -1 28 -10 50 -20 22 -10 56 -20 75 -22 19 -3
38 -10 42 -16 10 -16 142 -14 162 2 20 17 70 8 130 -23 27 -14 57 -26 67 -26
10 0 20 -4 23 -8 8 -13 47 -8 76 8 14 7 46 12 71 11 37 -2 48 1 54 16 11 25
13 123 2 123 -4 0 -6 4 -2 9 3 5 1 12 -5 16 -19 12 -10 23 23 31 17 4 107 8
199 8 l167 1 33 36 c27 29 39 35 68 33 19 -1 76 -5 125 -8 50 -3 109 -8 132
-10 43 -3 79 17 57 32 -14 10 -84 120 -84 132 0 5 -3 10 -8 10 -4 0 -13 12
-19 27 -7 16 -26 42 -43 60 -16 18 -30 37 -30 42 0 6 -4 11 -8 11 -9 0 -66
108 -65 124 0 6 4 41 8 78 4 37 8 87 11 110 5 61 5 254 -1 270 -2 7 -7 36 -10
63 -3 28 -11 87 -19 133 -12 69 -12 88 -1 115 11 26 11 34 0 51 -14 22 -15
146 -1 177 8 19 -26 198 -48 251 -9 20 -30 48 -48 62 -36 26 -140 76 -203 96
-59 18 -77 27 -107 51 -22 18 -41 22 -120 24 -90 2 -202 22 -263 47 -16 7 -33
12 -37 10 -5 -1 -8 3 -8 9 0 7 -21 10 -60 7 -58 -4 -63 -2 -101 30 l-40 34 2
73 c2 73 2 74 29 73 34 -1 50 8 50 31 0 10 3 21 7 25 4 4 9 26 10 49 1 23 3
67 4 98 4 65 -18 111 -51 106 -11 -2 -23 -6 -26 -10 -12 -12 -42 -8 -47 6 -2
6 -1 21 3 32 11 29 1 210 -11 210 -2 0 -6 23 -13 84 -7 54 -29 103 -61 136
-14 13 -25 29 -25 34 0 6 -7 7 -17 4 -11 -4 -14 -3 -9 5 4 7 -3 14 -19 18 -14
3 -25 10 -25 16 0 5 -4 6 -10 3 -5 -3 -10 -2 -10 4 0 10 -77 50 -107 56 -10 2
-20 4 -23 5 -3 1 -9 2 -14 1 -4 -1 -14 3 -22 9 -7 7 -26 14 -41 16 -53 9 -82
12 -85 9z"/>
</g>
</svg>
